<?xml version="1.0" standalone="no"?><!DOCTYPE svg PUBLIC "-//W3C//DTD SVG 1.1//EN" "http://www.w3.org/Graphics/SVG/1.1/DTD/svg11.dtd"><svg t="1690291005159" class="icon" viewBox="0 0 1024 1024" version="1.1" xmlns="http://www.w3.org/2000/svg" p-id="2334" xmlns:xlink="http://www.w3.org/1999/xlink" width="200" height="200"><path d="M512 0c282.774588 0 512 229.225412 512 512s-229.225412 512-512 512S0 794.774588 0 512 229.225412 0 512 0z m137.336471 251.331765a194.56 194.56 0 0 0-127.096471-56.500706V194.56h-20.48v0.271059a194.56 194.56 0 0 0-123.964235 335.179294c-103.002353 45.688471-174.08 141.101176-183.115294 251.361882a43.971765 43.971765 0 0 0 12.528941 34.273883c8.673882 8.884706 20.751059 13.854118 33.671529 13.793882 23.792941-0.090353 43.700706-17.92 45.537883-41.231059 4.096-50.477176 27.196235-97.972706 65.114352-133.782588 88.576-84.088471 232.207059-84.088471 320.752942-0.030118 38.038588 35.84 61.138824 83.305412 65.295058 133.842824 1.807059 23.190588 21.684706 41.050353 45.417412 41.200941h0.602353c12.468706 0.060235 24.485647-4.909176 33.189647-13.793882a43.971765 43.971765 0 0 0 12.528941-34.18353c-9.035294-110.320941-80.112941-205.763765-183.115294-251.452235a194.56 194.56 0 0 0 3.162353-278.678588zM512 287.774118c56.530824 0 102.249412 45.447529 102.249412 101.345882 0 55.898353-45.718588 101.345882-102.249412 101.345882s-102.249412-45.447529-102.249412-101.345882c0.060235-55.868235 45.778824-101.285647 102.27953-101.345882z" fill="#777777" p-id="2335"></path></svg>